<?xml version="1.0" standalone="no"?>
<!DOCTYPE svg PUBLIC "-//W3C//DTD SVG 20010904//EN"
 "http://www.w3.org/TR/2001/REC-SVG-20010904/DTD/svg10.dtd">
<svg version="1.0" xmlns="http://www.w3.org/2000/svg"
 width="388.000000pt" height="130.000000pt" viewBox="0 0 388.000000 130.000000"
 preserveAspectRatio="xMidYMid meet">

<g transform="translate(0.000000,130.000000) scale(0.100000,-0.100000)"
fill="#000000" stroke="none">
<path d="M0 650 l0 -650 1940 0 1940 0 0 650 0 650 -1940 0 -1940 0 0 -650z
m1600 349 c0 -99 -3 -179 -7 -177 -90 45 -112 52 -178 52 -60 1 -80 -4 -136
-31 -224 -110 -224 -430 -1 -540 76 -37 192 -40 263 -5 56 27 59 27 59 2 0
-18 7 -20 75 -20 l75 0 0 450 0 450 1010 0 1010 0 0 -535 0 -535 -1825 0
-1825 0 0 535 0 535 740 0 740 0 0 -181z m-102 -273 c111 -58 128 -199 32
-279 -85 -72 -214 -32 -256 79 -14 37 -15 51 -5 83 31 105 143 162 229 117z"/>
<path d="M515 864 c-27 -9 -68 -30 -92 -46 -181 -130 -156 -416 45 -515 76
-38 193 -40 263 -6 56 28 59 28 59 3 0 -19 5 -21 73 -18 l72 3 3 293 2 292
-75 0 c-74 0 -75 0 -75 -26 0 -14 -3 -24 -7 -22 -112 56 -187 68 -268 42z
m174 -142 c19 -9 48 -34 65 -55 26 -32 30 -46 30 -93 -1 -45 -7 -62 -31 -92
-42 -53 -87 -74 -146 -69 -85 7 -147 74 -147 159 0 73 28 117 95 152 39 21 92
20 134 -2z"/>
<path d="M2133 862 c-143 -51 -221 -166 -211 -309 8 -113 67 -201 166 -250 76
-38 193 -40 263 -6 56 28 59 28 59 3 0 -19 5 -21 70 -18 l71 3 2 293 2 292
-72 0 c-72 0 -73 0 -73 -26 0 -14 -3 -24 -7 -22 -116 58 -189 69 -270 40z
m176 -137 c40 -20 78 -69 92 -115 15 -51 -8 -116 -56 -159 -104 -91 -267 -16
-267 124 0 64 35 119 97 153 29 16 101 15 134 -3z"/>
<path d="M3031 862 c-21 -16 -23 -27 -23 -110 0 -54 5 -99 11 -106 22 -26 52
-26 77 -1 29 29 31 45 4 45 -11 0 -20 -7 -20 -15 0 -8 -9 -15 -20 -15 -19 0
-20 7 -20 90 0 83 1 90 20 90 11 0 20 -7 20 -15 0 -8 9 -15 20 -15 22 0 25 17
7 41 -20 27 -52 31 -76 11z"/>
<path d="M2730 855 c0 -8 9 -15 20 -15 19 0 20 -7 20 -105 0 -87 3 -105 15
-105 12 0 15 18 15 105 0 98 1 105 20 105 11 0 20 7 20 15 0 12 -13 15 -55 15
-42 0 -55 -3 -55 -15z"/>
<path d="M2870 750 l0 -120 50 0 c38 0 50 4 50 15 0 11 -11 15 -36 15 -35 0
-35 1 -32 38 3 32 7 37 31 40 15 2 27 9 27 16 0 6 -12 12 -27 11 -25 0 -28 4
-31 38 -3 36 -3 37 32 37 25 0 36 4 36 15 0 11 -12 15 -50 15 l-50 0 0 -120z"/>
<path d="M3160 750 c0 -100 3 -120 15 -120 12 0 15 13 15 55 0 52 1 55 25 55
24 0 25 -3 25 -55 0 -42 3 -55 15 -55 13 0 15 20 15 120 0 98 -3 120 -14 120
-11 0 -16 -15 -18 -52 -3 -45 -6 -53 -23 -53 -17 0 -20 8 -23 53 -2 37 -7 52
-18 52 -11 0 -14 -22 -14 -120z"/>
<path d="M3494 848 c-19 -23 -19 -23 1 -7 11 9 27 19 35 22 13 5 13 6 -1 6 -9
1 -24 -9 -35 -21z"/>
<path d="M3567 860 c12 -5 26 -17 32 -27 6 -10 11 -13 11 -7 0 15 -34 44 -51
43 -8 0 -4 -4 8 -9z"/>
<path d="M3520 798 c0 -24 3 -29 9 -19 8 12 12 12 25 2 13 -11 14 -9 12 13 -1
14 -6 29 -10 34 -4 4 -6 1 -4 -7 2 -7 -3 -16 -11 -19 -10 -3 -12 0 -8 12 4 9
2 16 -3 16 -6 0 -10 -15 -10 -32z"/>
<path d="M3471 804 c-2 -36 36 -74 74 -74 35 0 75 36 75 69 0 9 -8 0 -18 -19
-13 -28 -24 -36 -50 -38 -40 -4 -59 10 -71 52 -7 22 -9 25 -10 10z"/>
<path d="M2754 505 c-25 -39 -11 -81 37 -105 43 -22 53 -56 23 -81 -14 -11
-19 -10 -34 9 -21 25 -40 29 -40 7 0 -17 35 -55 49 -55 33 0 60 22 66 52 7 39
-9 88 -29 88 -7 0 -24 8 -36 18 -17 13 -21 24 -16 40 9 28 46 29 53 2 7 -25
33 -26 33 -2 0 50 -78 70 -106 27z"/>
<path d="M2912 518 c-8 -8 -12 -48 -12 -115 0 -102 0 -104 26 -113 14 -6 30
-10 35 -10 14 0 49 38 49 55 0 22 -25 18 -42 -7 -26 -39 -38 -13 -38 83 0 71
3 89 15 89 8 0 19 -9 25 -20 12 -22 40 -27 40 -7 0 7 -7 23 -16 35 -17 24 -62
30 -82 10z"/>
<path d="M3050 410 c0 -100 3 -120 15 -120 12 0 15 13 15 56 0 52 1 55 23 52
19 -3 22 -10 25 -55 2 -38 7 -53 18 -53 11 0 14 22 14 120 0 98 -3 120 -14
120 -11 0 -16 -15 -18 -52 -3 -46 -6 -53 -25 -56 -22 -3 -23 0 -23 52 0 43 -3
56 -15 56 -12 0 -15 -20 -15 -120z"/>
<path d="M3217 512 c-22 -24 -24 -178 -3 -207 15 -21 70 -25 89 -6 17 17 21
170 5 201 -17 32 -67 39 -91 12z m67 -28 c3 -9 6 -46 6 -84 0 -75 -16 -104
-45 -80 -11 9 -15 33 -15 90 0 42 3 80 7 83 12 13 41 7 47 -9z"/>
<path d="M3375 514 c-13 -13 -15 -35 -13 -112 3 -92 4 -97 29 -111 24 -13 29
-13 53 2 25 17 26 21 26 117 0 88 -2 100 -19 110 -28 15 -57 12 -76 -6z m63
-103 c3 -85 -5 -106 -35 -94 -9 4 -13 28 -13 87 0 86 4 99 30 94 12 -3 16 -21
18 -87z"/>
<path d="M3520 410 l0 -120 50 0 c34 0 50 4 50 13 0 7 -13 12 -32 12 l-33 0
-3 108 c-2 86 -6 107 -17 107 -12 0 -15 -21 -15 -120z"/>
</g>
</svg>
